<svg width="20" height="21" viewBox="0 0 20 21" fill="none" xmlns="http://www.w3.org/2000/svg">
<rect x="0.500122" y="1.21973" width="19" height="19" rx="9.5" stroke="#C6C6C6"/>
<path d="M10.0001 6.55322C10.2877 6.55322 10.5209 6.78641 10.5209 7.07406V10.1991H13.6459C13.9336 10.1991 14.1668 10.4322 14.1668 10.7199C14.1668 11.0075 13.9336 11.2407 13.6459 11.2407H10.5209V14.3657C10.5209 14.6534 10.2877 14.8866 10.0001 14.8866C9.71245 14.8866 9.47927 14.6534 9.47927 14.3657V11.2407H6.35427C6.06662 11.2407 5.83344 11.0075 5.83344 10.7199C5.83344 10.4322 6.06662 10.1991 6.35427 10.1991H9.47927V7.07406C9.47927 6.78641 9.71245 6.55322 10.0001 6.55322Z" fill="#C6C6C6"/>
</svg>
