<svg width="21" height="21" viewBox="0 0 21 21" fill="none" xmlns="http://www.w3.org/2000/svg">
<path d="M14.7354 10.0784L14.7354 10.0784L14.7413 10.0723C15.1913 9.6069 15.1997 8.86395 14.7354 8.39962C14.2743 7.93852 13.5177 7.93852 13.0566 8.39962L8.6985 12.7577L6.94372 11.003C6.48262 10.5419 5.72604 10.5419 5.26494 11.0029C4.80385 11.464 4.80385 12.2206 5.26494 12.6817L7.85911 15.2759C8.08014 15.4969 8.38105 15.624 8.6985 15.624C9.01594 15.624 9.31685 15.4969 9.53788 15.2759L14.7354 10.0784ZM1.3335 11.8332C1.3335 7.05848 5.22547 3.1665 10.0002 3.1665C14.7749 3.1665 18.6668 7.05848 18.6668 11.8332C18.6668 16.6079 14.7749 20.4998 10.0002 20.4998C5.22547 20.4998 1.3335 16.6079 1.3335 11.8332Z" fill="#27BDDE" stroke="#27BDDE"/>
</svg>
