<svg width="17" height="17" viewBox="0 0 17 17" fill="none" xmlns="http://www.w3.org/2000/svg">
<path d="M4.78837 15.5827H12.2117C14.1667 15.5827 14.9459 14.3856 15.038 12.9264L15.4063 7.0756C15.5055 5.5456 14.2871 4.24935 12.75 4.24935C12.318 4.24935 11.9213 4.00143 11.723 3.61893L11.213 2.59185C10.8871 1.94727 10.0371 1.41602 9.31462 1.41602H7.69254C6.96295 1.41602 6.11295 1.94727 5.78712 2.59185L5.27712 3.61893C5.07879 4.00143 4.68212 4.24935 4.25004 4.24935C2.71295 4.24935 1.49462 5.5456 1.59379 7.0756L1.96212 12.9264C2.04712 14.3856 2.83337 15.5827 4.78837 15.5827Z" stroke="white" stroke-linecap="round" stroke-linejoin="round"/>
<path d="M7.4375 5.66602H9.5625" stroke="white" stroke-linecap="round" stroke-linejoin="round"/>
<path d="M8.50008 12.7507C9.768 12.7507 10.8022 11.7165 10.8022 10.4486C10.8022 9.18065 9.768 8.14648 8.50008 8.14648C7.23216 8.14648 6.198 9.18065 6.198 10.4486C6.198 11.7165 7.23216 12.7507 8.50008 12.7507Z" stroke="white" stroke-linecap="round" stroke-linejoin="round"/>
</svg>
