<svg width="19" height="19" viewBox="0 0 19 19" fill="none" xmlns="http://www.w3.org/2000/svg">
<path d="M13.4584 1.58398H5.54171C3.35671 1.58398 1.58337 3.3494 1.58337 5.52648V10.2607V11.0523C1.58337 13.2294 3.35671 14.9948 5.54171 14.9948H6.72921C6.94296 14.9948 7.22796 15.1373 7.36254 15.3115L8.55004 16.8869C9.07254 17.5836 9.92754 17.5836 10.45 16.8869L11.6375 15.3115C11.788 15.1136 12.0255 14.9948 12.2709 14.9948H13.4584C15.6434 14.9948 17.4167 13.2294 17.4167 11.0523V5.52648C17.4167 3.3494 15.6434 1.58398 13.4584 1.58398ZM6.33337 9.50065C5.89004 9.50065 5.54171 9.1444 5.54171 8.70898C5.54171 8.27357 5.89796 7.91732 6.33337 7.91732C6.76879 7.91732 7.12504 8.27357 7.12504 8.70898C7.12504 9.1444 6.77671 9.50065 6.33337 9.50065ZM9.50004 9.50065C9.05671 9.50065 8.70837 9.1444 8.70837 8.70898C8.70837 8.27357 9.06462 7.91732 9.50004 7.91732C9.93546 7.91732 10.2917 8.27357 10.2917 8.70898C10.2917 9.1444 9.94337 9.50065 9.50004 9.50065ZM12.6667 9.50065C12.2234 9.50065 11.875 9.1444 11.875 8.70898C11.875 8.27357 12.2313 7.91732 12.6667 7.91732C13.1021 7.91732 13.4584 8.27357 13.4584 8.70898C13.4584 9.1444 13.11 9.50065 12.6667 9.50065Z" fill="white" fill-opacity="0.9"/>
<path d="M7.61542 15.1209L7.61543 15.1209L7.61311 15.1179C7.50919 14.9834 7.36201 14.877 7.21718 14.8046C7.0729 14.7325 6.89922 14.6782 6.72921 14.6782H5.54171C3.53036 14.6782 1.90004 13.0533 1.90004 11.0523V10.2607V5.52648C1.90004 3.52553 3.53036 1.90065 5.54171 1.90065H13.4584C15.4697 1.90065 17.1 3.52553 17.1 5.52648V11.0523C17.1 13.0533 15.4697 14.6782 13.4584 14.6782H12.2709C11.925 14.6782 11.5948 14.8444 11.3854 15.1199L11.3847 15.1209L10.1972 16.6963L10.1967 16.6969C9.98648 16.9772 9.73096 17.0927 9.50004 17.0927C9.26912 17.0927 9.0136 16.9772 8.80337 16.6969L8.80292 16.6963L7.61542 15.1209ZM5.22504 8.70898C5.22504 9.31722 5.71309 9.81732 6.33337 9.81732C6.95366 9.81732 7.44171 9.31722 7.44171 8.70898C7.44171 8.09868 6.94368 7.60065 6.33337 7.60065C5.72307 7.60065 5.22504 8.09868 5.22504 8.70898ZM8.39171 8.70898C8.39171 9.31722 8.87975 9.81732 9.50004 9.81732C10.1203 9.81732 10.6084 9.31722 10.6084 8.70898C10.6084 8.09868 10.1103 7.60065 9.50004 7.60065C8.88973 7.60065 8.39171 8.09868 8.39171 8.70898ZM11.5584 8.70898C11.5584 9.31722 12.0464 9.81732 12.6667 9.81732C13.287 9.81732 13.775 9.31722 13.775 8.70898C13.775 8.09868 13.277 7.60065 12.6667 7.60065C12.0564 7.60065 11.5584 8.09868 11.5584 8.70898Z" stroke="white" stroke-opacity="0.9" stroke-width="0.633333"/>
</svg>
