<svg width="23" height="23" viewBox="0 0 23 23" fill="none" xmlns="http://www.w3.org/2000/svg">
<path d="M19.4099 5.98177C16.3574 5.67927 13.2866 5.52344 10.2249 5.52344C8.40991 5.52344 6.59491 5.6151 4.77991 5.79844L2.90991 5.98177" stroke="#FF2C2C" stroke-width="1.5" stroke-linecap="round" stroke-linejoin="round"/>
<path d="M7.95166 5.05551L8.15333 3.85467C8.29999 2.98384 8.40999 2.33301 9.95916 2.33301H12.3608C13.91 2.33301 14.0292 3.02051 14.1667 3.86384L14.3683 5.05551" stroke="#FF2C2C" stroke-width="1.5" stroke-linecap="round" stroke-linejoin="round"/>
<path d="M17.4392 8.87793L16.8434 18.1088C16.7425 19.5479 16.66 20.6663 14.1025 20.6663H8.21753C5.66003 20.6663 5.57753 19.5479 5.47669 18.1088L4.88086 8.87793" stroke="#FF2C2C" stroke-width="1.5" stroke-linecap="round" stroke-linejoin="round"/>
<path d="M9.62915 15.625H12.6817" stroke="#FF2C2C" stroke-width="1.5" stroke-linecap="round" stroke-linejoin="round"/>
<path d="M8.86816 11.958H13.4515" stroke="#FF2C2C" stroke-width="1.5" stroke-linecap="round" stroke-linejoin="round"/>
</svg>
