<svg width="26" height="26" viewBox="0 0 26 26" fill="none" xmlns="http://www.w3.org/2000/svg">
<path d="M2.14502 14.0831H6.25085C7.07419 14.0831 7.82169 14.5489 8.19002 15.2856L9.15419 17.2248C9.75002 18.4164 10.8334 18.4164 11.0934 18.4164H14.9175C15.7409 18.4164 16.4884 17.9506 16.8567 17.2139L17.8209 15.2748C18.1892 14.5381 18.9367 14.0723 19.76 14.0723H23.8117" stroke="white" stroke-width="1.5" stroke-linecap="round" stroke-linejoin="round"/>
<path d="M20.5833 8.6665C22.3782 8.6665 23.8333 7.21143 23.8333 5.4165C23.8333 3.62158 22.3782 2.1665 20.5833 2.1665C18.7883 2.1665 17.3333 3.62158 17.3333 5.4165C17.3333 7.21143 18.7883 8.6665 20.5833 8.6665Z" fill="#FF0000"/>
<path d="M15.1667 2.1665H9.75008C4.33341 2.1665 2.16675 4.33317 2.16675 9.74984V16.2498C2.16675 21.6665 4.33341 23.8332 9.75008 23.8332H16.2501C21.6667 23.8332 23.8334 21.6665 23.8334 16.2498V10.8332" stroke="white" stroke-width="1.5" stroke-linecap="round" stroke-linejoin="round"/>
</svg>
