<svg width="23" height="23" viewBox="0 0 23 23" fill="none" xmlns="http://www.w3.org/2000/svg">
<path d="M10.2432 2.33301H8.40983C3.8265 2.33301 1.99316 4.16634 1.99316 8.74967V14.2497C1.99316 18.833 3.8265 20.6663 8.40983 20.6663H13.9098C18.4932 20.6663 20.3265 18.833 20.3265 14.2497V12.4163" stroke="white" stroke-width="1.5" stroke-linecap="round" stroke-linejoin="round"/>
<path d="M14.8631 3.26881L7.6398 10.4921C7.3648 10.7671 7.0898 11.308 7.0348 11.7021L6.64063 14.4613C6.49397 15.4605 7.1998 16.1571 8.19897 16.0196L10.9581 15.6255C11.3431 15.5705 11.884 15.2955 12.1681 15.0205L19.3915 7.79714C20.6381 6.55048 21.2248 5.10214 19.3915 3.26881C17.5581 1.43548 16.1098 2.02214 14.8631 3.26881Z" stroke="white" stroke-width="1.5" stroke-miterlimit="10" stroke-linecap="round" stroke-linejoin="round"/>
<path d="M13.8274 4.30371C14.4416 6.49454 16.1557 8.20871 18.3557 8.83204" stroke="white" stroke-width="1.5" stroke-miterlimit="10" stroke-linecap="round" stroke-linejoin="round"/>
</svg>
