<svg width="53" height="48" viewBox="0 0 53 48" fill="none" xmlns="http://www.w3.org/2000/svg">
<path d="M26.4584 22.7498C32.1423 22.7498 36.7501 18.1421 36.7501 12.4582C36.7501 6.77424 32.1423 2.1665 26.4584 2.1665C20.7745 2.1665 16.1667 6.77424 16.1667 12.4582C16.1667 18.1421 20.7745 22.7498 26.4584 22.7498Z" stroke="white" stroke-width="1.5" stroke-linecap="round" stroke-linejoin="round"/>
<path d="M37.8334 23.8332L35.6667 21.6665" stroke="white" stroke-width="1.5" stroke-linecap="round" stroke-linejoin="round"/>
<g filter="url(#filter0_d_761_2660)">
<path d="M7.964 38C7.5 38 7.084 37.892 6.716 37.676C6.348 37.452 6.056 37.156 5.84 36.788C5.632 36.412 5.528 36 5.528 35.552C5.528 35.2 5.608 34.868 5.768 34.556C5.936 34.236 6.168 33.968 6.464 33.752C6.168 33.536 5.94 33.276 5.78 32.972C5.62 32.66 5.54 32.336 5.54 32C5.54 31.552 5.644 31.148 5.852 30.788C6.068 30.428 6.356 30.14 6.716 29.924C7.076 29.708 7.476 29.6 7.916 29.6H11.3V30.872H8.072C7.872 30.872 7.688 30.924 7.52 31.028C7.352 31.124 7.216 31.256 7.112 31.424C7.016 31.592 6.968 31.784 6.968 32C6.968 32.192 7.02 32.372 7.124 32.54C7.228 32.708 7.364 32.844 7.532 32.948C7.7 33.044 7.888 33.092 8.096 33.092H10.88V34.364H8.168C7.928 34.364 7.716 34.42 7.532 34.532C7.348 34.644 7.204 34.792 7.1 34.976C7.004 35.152 6.956 35.348 6.956 35.564C6.956 35.772 7.004 35.968 7.1 36.152C7.204 36.328 7.344 36.472 7.52 36.584C7.704 36.688 7.912 36.74 8.144 36.74H11.3V38H7.964ZM12.2406 38L14.2086 35.252C13.8646 35.108 13.5646 34.916 13.3086 34.676C13.0606 34.428 12.8646 34.144 12.7206 33.824C12.5846 33.504 12.5166 33.16 12.5166 32.792V31.88H13.8966V32.792C13.8966 33.048 13.9566 33.284 14.0766 33.5C14.1966 33.708 14.3566 33.884 14.5566 34.028C14.7646 34.164 14.9886 34.256 15.2286 34.304L16.9326 31.88H18.4566L16.5726 34.508C16.9646 34.636 17.3006 34.828 17.5806 35.084C17.8606 35.34 18.0726 35.64 18.2166 35.984C18.3686 36.32 18.4446 36.684 18.4446 37.076V38H17.0766V37.076C17.0766 36.796 17.0086 36.54 16.8726 36.308C16.7366 36.076 16.5486 35.888 16.3086 35.744C16.0766 35.6 15.8126 35.52 15.5166 35.504L13.7646 38H12.2406ZM22.9639 31.736C23.4599 31.736 23.9039 31.816 24.2959 31.976C24.6879 32.128 25.0199 32.352 25.2919 32.648C25.5719 32.944 25.7839 33.296 25.9279 33.704C26.0799 34.104 26.1559 34.548 26.1559 35.036C26.1559 35.652 26.0279 36.196 25.7719 36.668C25.5239 37.132 25.1759 37.496 24.7279 37.76C24.2879 38.016 23.7759 38.144 23.1919 38.144C22.9039 38.144 22.6319 38.1 22.3759 38.012C22.1199 37.924 21.8879 37.8 21.6799 37.64C21.4719 37.48 21.3039 37.292 21.1759 37.076H21.1639V40.64H19.7839V35.012C19.7839 34.332 19.9159 33.748 20.1799 33.26C20.4519 32.772 20.8279 32.396 21.3079 32.132C21.7879 31.868 22.3399 31.736 22.9639 31.736ZM22.9639 32.912C22.6199 32.912 22.3119 33 22.0399 33.176C21.7679 33.344 21.5559 33.58 21.4039 33.884C21.2519 34.188 21.1759 34.54 21.1759 34.94C21.1759 35.332 21.2519 35.684 21.4039 35.996C21.5559 36.3 21.7679 36.54 22.0399 36.716C22.3119 36.884 22.6239 36.968 22.9759 36.968C23.3279 36.968 23.6359 36.88 23.8999 36.704C24.1719 36.528 24.3839 36.288 24.5359 35.984C24.6879 35.68 24.7639 35.332 24.7639 34.94C24.7639 34.54 24.6879 34.188 24.5359 33.884C24.3839 33.58 24.1719 33.344 23.8999 33.176C23.6279 33 23.3159 32.912 22.9639 32.912ZM27.4608 38V29.24H28.8408V38H27.4608ZM33.412 38.144C32.78 38.144 32.22 38.004 31.732 37.724C31.244 37.436 30.856 37.052 30.568 36.572C30.288 36.084 30.148 35.54 30.148 34.94C30.148 34.34 30.288 33.8 30.568 33.32C30.856 32.832 31.244 32.448 31.732 32.168C32.22 31.88 32.78 31.736 33.412 31.736C34.036 31.736 34.592 31.88 35.08 32.168C35.568 32.448 35.952 32.828 36.232 33.308C36.52 33.788 36.664 34.332 36.664 34.94C36.664 35.54 36.52 36.084 36.232 36.572C35.952 37.052 35.568 37.436 35.08 37.724C34.592 38.004 34.036 38.144 33.412 38.144ZM33.412 36.968C33.788 36.968 34.116 36.88 34.396 36.704C34.676 36.52 34.892 36.276 35.044 35.972C35.196 35.668 35.272 35.324 35.272 34.94C35.272 34.564 35.196 34.224 35.044 33.92C34.892 33.608 34.676 33.364 34.396 33.188C34.116 33.004 33.788 32.912 33.412 32.912C33.028 32.912 32.696 33.004 32.416 33.188C32.144 33.364 31.928 33.604 31.768 33.908C31.616 34.212 31.54 34.556 31.54 34.94C31.54 35.316 31.616 35.66 31.768 35.972C31.928 36.276 32.144 36.52 32.416 36.704C32.696 36.88 33.028 36.968 33.412 36.968ZM37.9245 38V33.62C37.9245 33.076 38.0765 32.652 38.3805 32.348C38.6925 32.036 39.1205 31.88 39.6645 31.88H41.1405V33.056H39.9165C39.7245 33.056 39.5725 33.112 39.4605 33.224C39.3565 33.336 39.3045 33.488 39.3045 33.68V38H37.9245ZM45.1935 38C44.5055 38 43.9015 37.872 43.3815 37.616C42.8695 37.352 42.4695 36.992 42.1815 36.536C41.8935 36.072 41.7495 35.54 41.7495 34.94C41.7495 34.308 41.8775 33.752 42.1335 33.272C42.3895 32.792 42.7415 32.416 43.1895 32.144C43.6375 31.872 44.1535 31.736 44.7375 31.736C45.3935 31.736 45.9335 31.876 46.3575 32.156C46.7815 32.436 47.0935 32.812 47.2935 33.284C47.5015 33.756 47.6055 34.284 47.6055 34.868C47.6055 34.948 47.6015 35.04 47.5935 35.144C47.5855 35.248 47.5735 35.328 47.5575 35.384H43.2135C43.2615 35.704 43.3775 35.972 43.5615 36.188C43.7455 36.396 43.9775 36.556 44.2575 36.668C44.5375 36.772 44.8495 36.824 45.1935 36.824H46.8375V38H45.1935ZM43.2015 34.448H46.2255C46.2175 34.296 46.1935 34.144 46.1535 33.992C46.1215 33.84 46.0655 33.696 45.9855 33.56C45.9135 33.424 45.8175 33.308 45.6975 33.212C45.5855 33.108 45.4495 33.028 45.2895 32.972C45.1295 32.908 44.9455 32.876 44.7375 32.876C44.4975 32.876 44.2855 32.924 44.1015 33.02C43.9175 33.108 43.7615 33.228 43.6335 33.38C43.5055 33.524 43.4055 33.692 43.3335 33.884C43.2695 34.068 43.2255 34.256 43.2015 34.448Z" fill="white"/>
</g>
<defs>
<filter id="filter0_d_761_2660" x="0.528076" y="25.6402" width="52.0774" height="21.3999" filterUnits="userSpaceOnUse" color-interpolation-filters="sRGB">
<feFlood flood-opacity="0" result="BackgroundImageFix"/>
<feColorMatrix in="SourceAlpha" type="matrix" values="0 0 0 0 0 0 0 0 0 0 0 0 0 0 0 0 0 0 127 0" result="hardAlpha"/>
<feOffset dy="1.4"/>
<feGaussianBlur stdDeviation="2.5"/>
<feComposite in2="hardAlpha" operator="out"/>
<feColorMatrix type="matrix" values="0 0 0 0 0 0 0 0 0 0 0 0 0 0 0 0 0 0 0.25 0"/>
<feBlend mode="normal" in2="BackgroundImageFix" result="effect1_dropShadow_761_2660"/>
<feBlend mode="normal" in="SourceGraphic" in2="effect1_dropShadow_761_2660" result="shape"/>
</filter>
</defs>
</svg>
