<svg width="23" height="23" viewBox="0 0 23 23" fill="none" xmlns="http://www.w3.org/2000/svg">
<path d="M8.55651 10.4638C8.46484 10.4547 8.35484 10.4547 8.25401 10.4638C6.07234 10.3905 4.33984 8.60301 4.33984 6.40301C4.33984 4.15717 6.15484 2.33301 8.40984 2.33301C10.6557 2.33301 12.4798 4.15717 12.4798 6.40301C12.4707 8.60301 10.7382 10.3905 8.55651 10.4638Z" stroke="white" stroke-width="1.5" stroke-linecap="round" stroke-linejoin="round"/>
<path d="M15.2024 4.16699C16.9808 4.16699 18.4108 5.60616 18.4108 7.37533C18.4108 9.10782 17.0358 10.5195 15.3216 10.5837C15.2483 10.5745 15.1658 10.5745 15.0833 10.5837" stroke="white" stroke-width="1.5" stroke-linecap="round" stroke-linejoin="round"/>
<path d="M3.97332 13.847C1.75499 15.332 1.75499 17.752 3.97332 19.2278C6.49415 20.9145 10.6283 20.9145 13.1492 19.2278C15.3675 17.7428 15.3675 15.3228 13.1492 13.847C10.6375 12.1695 6.50332 12.1695 3.97332 13.847Z" stroke="white" stroke-width="1.5" stroke-linecap="round" stroke-linejoin="round"/>
<path d="M16.9717 18.833C17.6317 18.6955 18.255 18.4297 18.7683 18.0355C20.1983 16.963 20.1983 15.1938 18.7683 14.1213C18.2642 13.7363 17.65 13.4797 16.9992 13.333" stroke="white" stroke-width="1.5" stroke-linecap="round" stroke-linejoin="round"/>
</svg>
