<svg width="23" height="23" viewBox="0 0 23 23" fill="none" xmlns="http://www.w3.org/2000/svg">
<path d="M13.3965 17.9627L14.7898 19.356L17.5765 16.5693" stroke="white" stroke-width="1.5" stroke-linecap="round" stroke-linejoin="round"/>
<path d="M11.3065 10.4638C11.2149 10.4547 11.1049 10.4547 11.004 10.4638C8.82238 10.3905 7.08988 8.60301 7.08988 6.40301C7.08071 4.15717 8.90488 2.33301 11.1507 2.33301C13.3965 2.33301 15.2207 4.15717 15.2207 6.40301C15.2207 8.60301 13.479 10.3905 11.3065 10.4638Z" stroke="white" stroke-width="1.5" stroke-linecap="round" stroke-linejoin="round"/>
<path d="M11.1508 20.4929C9.48245 20.4929 7.82328 20.0712 6.55828 19.2279C4.33995 17.7429 4.33995 15.3229 6.55828 13.847C9.07911 12.1604 13.2133 12.1604 15.7341 13.847" stroke="white" stroke-width="1.5" stroke-linecap="round" stroke-linejoin="round"/>
</svg>
