<svg width="17" height="17" viewBox="0 0 17 17" fill="none" xmlns="http://www.w3.org/2000/svg">
<path d="M15.5834 9.20768V12.041C15.5834 14.5202 14.1667 15.5827 12.0417 15.5827H4.95841C2.83341 15.5827 1.41675 14.5202 1.41675 12.041V9.20768C1.41675 7.3306 2.23133 6.26812 3.54175 5.86437C3.96675 5.72979 4.44133 5.66602 4.95841 5.66602H12.0417C12.5588 5.66602 13.0334 5.72979 13.4584 5.86437C14.7688 6.26812 15.5834 7.3306 15.5834 9.20768Z" stroke="black" stroke-miterlimit="10" stroke-linecap="round" stroke-linejoin="round"/>
<path d="M13.4584 4.95768V5.86437C13.0334 5.72979 12.5588 5.66602 12.0417 5.66602H4.95841C4.44133 5.66602 3.96675 5.72979 3.54175 5.86437V4.95768C3.54175 4.17852 4.17925 3.54102 4.95841 3.54102H12.0417C12.8209 3.54102 13.4584 4.17852 13.4584 4.95768Z" stroke="black" stroke-miterlimit="10" stroke-linecap="round" stroke-linejoin="round"/>
<path d="M11.3334 2.48561V3.54102H5.66675V2.48561C5.66675 1.89769 6.14842 1.41602 6.73634 1.41602H10.2638C10.8517 1.41602 11.3334 1.89769 11.3334 2.48561Z" stroke="black" stroke-miterlimit="10" stroke-linecap="round" stroke-linejoin="round"/>
</svg>
