<svg width="23" height="23" viewBox="0 0 23 23" fill="none" xmlns="http://www.w3.org/2000/svg">
<path d="M15.7432 17.3943H12.0765L7.99732 20.1076C7.39232 20.5109 6.5765 20.0801 6.5765 19.3468V17.3943C3.8265 17.3943 1.99316 15.5609 1.99316 12.8109V7.31087C1.99316 4.56087 3.8265 2.72754 6.5765 2.72754H15.7432C18.4932 2.72754 20.3265 4.56087 20.3265 7.31087V12.8109C20.3265 15.5609 18.4932 17.3943 15.7432 17.3943Z" stroke="white" stroke-width="1.5" stroke-miterlimit="10" stroke-linecap="round" stroke-linejoin="round"/>
<path d="M11.1598 10.9131V10.7206C11.1598 10.0973 11.5448 9.76727 11.9298 9.50144C12.3057 9.24477 12.6815 8.91478 12.6815 8.30978C12.6815 7.46645 12.0032 6.78809 11.1598 6.78809C10.3165 6.78809 9.63818 7.46645 9.63818 8.30978" stroke="white" stroke-width="1.5" stroke-linecap="round" stroke-linejoin="round"/>
<path d="M11.1559 13.1038H11.1641" stroke="white" stroke-width="1.5" stroke-linecap="round" stroke-linejoin="round"/>
</svg>
