<svg width="23" height="22" viewBox="0 0 23 22" fill="none" xmlns="http://www.w3.org/2000/svg">
<path fill-rule="evenodd" clip-rule="evenodd" d="M18 21H4.66671C2.8256 21 1.33337 19.5078 1.33337 17.6667V4.33333C1.33337 2.49222 2.8256 1 4.66671 1H18C19.8412 1 21.3334 2.49222 21.3334 4.33333V17.6667C21.3334 19.5078 19.8412 21 18 21Z" stroke="white" stroke-width="1.5" stroke-linecap="round" stroke-linejoin="round"/>
<path d="M1.33337 17.0955L6.45782 11.9711C6.89226 11.5367 7.5956 11.5367 8.02893 11.9711L9.59115 13.5333L14.6767 8.44888C15.1112 8.01444 15.8145 8.01444 16.2478 8.44888L21.3334 13.5344" stroke="white" stroke-width="1.5" stroke-linecap="round" stroke-linejoin="round"/>
<path d="M7.4613 5.89646C7.62402 6.05918 7.62402 6.32299 7.4613 6.48571C7.29858 6.64843 7.03476 6.64843 6.87204 6.48571C6.70932 6.32299 6.70932 6.05918 6.87204 5.89646C7.03476 5.73373 7.29858 5.73373 7.4613 5.89646Z" stroke="white" stroke-width="1.5" stroke-linecap="round" stroke-linejoin="round"/>
</svg>
