<svg width="44" height="44" viewBox="0 0 44 44" fill="none" xmlns="http://www.w3.org/2000/svg">
<path d="M27.92 10.1333C25.5066 10.1333 23.3466 11.3066 22 13.1066C20.6533 11.3066 18.4933 10.1333 16.08 10.1333C11.9866 10.1333 8.66663 13.4666 8.66663 17.5866C8.66663 19.1733 8.91996 20.64 9.35996 22C11.4666 28.6666 17.96 32.6533 21.1733 33.7466C21.6266 33.9066 22.3733 33.9066 22.8266 33.7466C26.04 32.6533 32.5333 28.6666 34.64 22C35.08 20.64 35.3333 19.1733 35.3333 17.5866C35.3333 13.4666 32.0133 10.1333 27.92 10.1333Z" fill="#FFFEFE" fill-opacity="0.9"/>
<path d="M21.5996 13.4062L22 13.9413L22.4003 13.4062C23.6571 11.7264 25.6715 10.6333 27.92 10.6333C31.7348 10.6333 34.8333 13.7404 34.8333 17.5866C34.8333 19.1189 34.5888 20.5337 34.1642 21.8461L34.1632 21.8493C33.1457 25.0693 31.0626 27.6588 28.8224 29.5841C26.58 31.5113 24.2087 32.7482 22.6656 33.2733L22.6656 33.2733L22.6602 33.2751C22.5037 33.3304 22.2642 33.3666 22 33.3666C21.7357 33.3666 21.4962 33.3304 21.3397 33.2751L21.3397 33.2751L21.3344 33.2733C19.7912 32.7482 17.42 31.5113 15.1775 29.5841C12.9373 27.6588 10.8543 25.0693 9.83672 21.8493L9.83673 21.8493L9.83568 21.8461C9.4111 20.5337 9.16663 19.1189 9.16663 17.5866C9.16663 13.7404 12.2651 10.6333 16.08 10.6333C18.3284 10.6333 20.3429 11.7264 21.5996 13.4062Z" stroke="#FFFEFE" stroke-opacity="0.9"/>
</svg>
