<svg width="23" height="23" viewBox="0 0 23 23" fill="none" xmlns="http://www.w3.org/2000/svg">
<path d="M8.40983 20.6663H13.9098C18.4932 20.6663 20.3265 18.833 20.3265 14.2497V8.74967C20.3265 4.16634 18.4932 2.33301 13.9098 2.33301H8.40983C3.8265 2.33301 1.99316 4.16634 1.99316 8.74967V14.2497C1.99316 18.833 3.8265 20.6663 8.40983 20.6663Z" stroke="white" stroke-width="1.5" stroke-linecap="round" stroke-linejoin="round"/>
<path d="M8.40999 9.66667C9.42252 9.66667 10.2433 8.84586 10.2433 7.83333C10.2433 6.82081 9.42252 6 8.40999 6C7.39747 6 6.57666 6.82081 6.57666 7.83333C6.57666 8.84586 7.39747 9.66667 8.40999 9.66667Z" stroke="white" stroke-width="1.5" stroke-linecap="round" stroke-linejoin="round"/>
<path d="M2.60742 17.8712L7.12659 14.837C7.85075 14.3512 8.89575 14.4062 9.54659 14.9653L9.84909 15.2312C10.5641 15.8453 11.7191 15.8453 12.4341 15.2312L16.2474 11.9587C16.9624 11.3445 18.1174 11.3445 18.8324 11.9587L20.3266 13.242" stroke="white" stroke-width="1.5" stroke-linecap="round" stroke-linejoin="round"/>
</svg>
