<svg width="44" height="44" viewBox="0 0 44 44" fill="none" xmlns="http://www.w3.org/2000/svg">
<path d="M28.6666 8.6665H15.3333C11.6533 8.6665 8.66663 11.6398 8.66663 15.3065V23.2798V24.6132C8.66663 28.2798 11.6533 31.2532 15.3333 31.2532H17.3333C17.6933 31.2532 18.1733 31.4932 18.4 31.7865L20.4 34.4398C21.28 35.6132 22.72 35.6132 23.6 34.4398L25.6 31.7865C25.8533 31.4532 26.2533 31.2532 26.6666 31.2532H28.6666C32.3466 31.2532 35.3333 28.2798 35.3333 24.6132V15.3065C35.3333 11.6398 32.3466 8.6665 28.6666 8.6665ZM16.6666 21.9998C15.92 21.9998 15.3333 21.3998 15.3333 20.6665C15.3333 19.9332 15.9333 19.3332 16.6666 19.3332C17.4 19.3332 18 19.9332 18 20.6665C18 21.3998 17.4133 21.9998 16.6666 21.9998ZM22 21.9998C21.2533 21.9998 20.6666 21.3998 20.6666 20.6665C20.6666 19.9332 21.2666 19.3332 22 19.3332C22.7333 19.3332 23.3333 19.9332 23.3333 20.6665C23.3333 21.3998 22.7466 21.9998 22 21.9998ZM27.3333 21.9998C26.5866 21.9998 26 21.3998 26 20.6665C26 19.9332 26.6 19.3332 27.3333 19.3332C28.0666 19.3332 28.6666 19.9332 28.6666 20.6665C28.6666 21.3998 28.08 21.9998 27.3333 21.9998Z" fill="white" fill-opacity="0.9"/>
<path d="M18.7992 31.4855L18.7993 31.4855L18.7956 31.4808C18.6244 31.2593 18.381 31.083 18.1402 30.9626C17.9003 30.8427 17.613 30.7532 17.3333 30.7532H15.3333C11.9275 30.7532 9.16663 28.0017 9.16663 24.6132V23.2798V15.3065C9.16663 11.9179 11.9275 9.1665 15.3333 9.1665H28.6666C32.0724 9.1665 34.8333 11.9179 34.8333 15.3065V24.6132C34.8333 28.0017 32.0724 30.7532 28.6666 30.7532H26.6666C26.0947 30.7532 25.5483 31.0281 25.2019 31.484L25.2007 31.4855L23.2007 34.1389L23.2 34.1398C22.8405 34.6191 22.4008 34.8198 22 34.8198C21.5991 34.8198 21.1594 34.6191 20.8 34.1398L20.7992 34.1389L18.7992 31.4855ZM14.8333 20.6665C14.8333 21.6727 15.6406 22.4998 16.6666 22.4998C17.6927 22.4998 18.5 21.6727 18.5 20.6665C18.5 19.657 17.6761 18.8332 16.6666 18.8332C15.6572 18.8332 14.8333 19.657 14.8333 20.6665ZM20.1666 20.6665C20.1666 21.6727 20.9739 22.4998 22 22.4998C23.026 22.4998 23.8333 21.6727 23.8333 20.6665C23.8333 19.657 23.0094 18.8332 22 18.8332C20.9905 18.8332 20.1666 19.657 20.1666 20.6665ZM25.5 20.6665C25.5 21.6727 26.3072 22.4998 27.3333 22.4998C28.3594 22.4998 29.1666 21.6727 29.1666 20.6665C29.1666 19.657 28.3428 18.8332 27.3333 18.8332C26.3238 18.8332 25.5 19.657 25.5 20.6665Z" stroke="white" stroke-opacity="0.9"/>
</svg>
