<svg width="19" height="19" viewBox="0 0 19 19" fill="none" xmlns="http://www.w3.org/2000/svg">
<path d="M8.11462 7.93977C8.11462 8.36727 8.23337 8.4306 8.50254 8.5256L8.90629 8.6681V7.32227H8.66879C8.36796 7.32227 8.11462 7.59935 8.11462 7.93977Z" fill="#E7E7E7"/>
<path d="M10.0938 11.6779H10.3313C10.64 11.6779 10.8854 11.4008 10.8854 11.0604C10.8854 10.6329 10.7667 10.5695 10.4975 10.4745L10.0938 10.332V11.6779Z" fill="#E7E7E7"/>
<path d="M15.5009 4.33898L13.878 5.9619C13.7592 6.08065 13.6088 6.13607 13.4584 6.13607C13.308 6.13607 13.1575 6.08065 13.0388 5.9619C12.8092 5.73232 12.8092 5.35232 13.0388 5.12273L14.6617 3.49982C13.2684 2.31232 11.4713 1.58398 9.50004 1.58398C5.13004 1.58398 1.58337 5.13065 1.58337 9.50065C1.58337 13.8707 5.13004 17.4173 9.50004 17.4173C13.87 17.4173 17.4167 13.8707 17.4167 9.50065C17.4167 7.5294 16.6884 5.73232 15.5009 4.33898ZM10.8855 9.35815C11.3921 9.54023 12.073 9.9044 12.073 11.0682C12.073 12.0577 11.2892 12.8732 10.3313 12.8732H10.0938V13.0711C10.0938 13.3957 9.82462 13.6648 9.50004 13.6648C9.17546 13.6648 8.90629 13.3957 8.90629 13.0711V12.8732H8.84296C7.79004 12.8732 6.92712 11.9865 6.92712 10.894C6.92712 10.5615 7.19629 10.2923 7.52087 10.2923C7.84546 10.2923 8.11462 10.5615 8.11462 10.8861C8.11462 11.3215 8.43921 11.6777 8.84296 11.6777H8.90629V9.92023L8.11462 9.64315C7.60796 9.46107 6.92712 9.0969 6.92712 7.93315C6.92712 6.94357 7.71087 6.12815 8.66879 6.12815H8.90629V5.93815C8.90629 5.61357 9.17546 5.3444 9.50004 5.3444C9.82462 5.3444 10.0938 5.61357 10.0938 5.93815V6.13607H10.1571C11.21 6.13607 12.073 7.02273 12.073 8.11523C12.073 8.43982 11.8038 8.70898 11.4792 8.70898C11.1546 8.70898 10.8855 8.43982 10.8855 8.11523C10.8855 7.67982 10.5609 7.32357 10.1571 7.32357H10.0938V9.08107L10.8855 9.35815Z" fill="#E7E7E7"/>
<path d="M17.9629 1.3544C17.8996 1.2119 17.7888 1.09315 17.6383 1.02982C17.5671 1.00607 17.4958 0.990234 17.4167 0.990234H14.25C13.9254 0.990234 13.6562 1.2594 13.6562 1.58398C13.6562 1.90857 13.9254 2.17773 14.25 2.17773H15.9838L14.6617 3.49982C14.9625 3.76107 15.2396 4.03815 15.5008 4.33898L16.8229 3.0169V4.75065C16.8229 5.07523 17.0921 5.3444 17.4167 5.3444C17.7412 5.3444 18.0104 5.07523 18.0104 4.75065V1.58398C18.0104 1.50482 17.9946 1.43357 17.9629 1.3544Z" fill="#E7E7E7"/>
</svg>
