<svg width="28" height="24" viewBox="0 0 28 24" fill="none" xmlns="http://www.w3.org/2000/svg">
<g filter="url(#filter0_d_469_6381)">
<path d="M7 10C5.9 10 5 10.9 5 12C5 13.1 5.9 14 7 14C8.1 14 9 13.1 9 12C9 10.9 8.1 10 7 10Z" fill="white"/>
<path d="M21 10C19.9 10 19 10.9 19 12C19 13.1 19.9 14 21 14C22.1 14 23 13.1 23 12C23 10.9 22.1 10 21 10Z" fill="white"/>
<path d="M14 10C12.9 10 12 10.9 12 12C12 13.1 12.9 14 14 14C15.1 14 16 13.1 16 12C16 10.9 15.1 10 14 10Z" fill="white"/>
</g>
<defs>
<filter id="filter0_d_469_6381" x="-3" y="-3.6" width="34" height="34" filterUnits="userSpaceOnUse" color-interpolation-filters="sRGB">
<feFlood flood-opacity="0" result="BackgroundImageFix"/>
<feColorMatrix in="SourceAlpha" type="matrix" values="0 0 0 0 0 0 0 0 0 0 0 0 0 0 0 0 0 0 127 0" result="hardAlpha"/>
<feOffset dy="1.4"/>
<feGaussianBlur stdDeviation="2.5"/>
<feComposite in2="hardAlpha" operator="out"/>
<feColorMatrix type="matrix" values="0 0 0 0 0 0 0 0 0 0 0 0 0 0 0 0 0 0 0.25 0"/>
<feBlend mode="normal" in2="BackgroundImageFix" result="effect1_dropShadow_469_6381"/>
<feBlend mode="normal" in="SourceGraphic" in2="effect1_dropShadow_469_6381" result="shape"/>
</filter>
</defs>
</svg>
