<svg width="65" height="65" viewBox="0 0 65 65" fill="none" xmlns="http://www.w3.org/2000/svg">
<g opacity="0.6">
<path d="M28.8437 51.7562V13.2437C28.8437 9.5875 27.3 8.125 23.4 8.125H13.5688C9.66875 8.125 8.125 9.5875 8.125 13.2437V51.7562C8.125 55.4125 9.66875 56.875 13.5688 56.875H23.4C27.3 56.875 28.8437 55.4125 28.8437 51.7562Z" fill="white"/>
<path d="M56.8749 51.7562V13.2437C56.8749 9.5875 55.3311 8.125 51.4311 8.125H41.5999C37.727 8.125 36.1561 9.5875 36.1561 13.2437V51.7562C36.1561 55.4125 37.6999 56.875 41.5999 56.875H51.4311C55.3311 56.875 56.8749 55.4125 56.8749 51.7562Z" fill="white"/>
</g>
</svg>
