<svg width="23" height="23" viewBox="0 0 23 23" fill="none" xmlns="http://www.w3.org/2000/svg">
<path d="M16.6967 12.9211C16.3117 13.297 16.0917 13.8378 16.1467 14.4153C16.2292 15.4053 17.1367 16.1295 18.1267 16.1295H19.8683V17.2203C19.8683 19.1178 18.3192 20.667 16.4217 20.667H7.15417C7.43833 20.4287 7.68583 20.1353 7.87833 19.8053C8.21749 19.2553 8.40999 18.6045 8.40999 17.917C8.40999 15.8912 6.76916 14.2503 4.74333 14.2503C3.88166 14.2503 3.08416 14.5528 2.45166 15.057V11.0512C2.45166 9.15367 4.00082 7.60449 5.89832 7.60449H16.4217C18.3192 7.60449 19.8683 9.15367 19.8683 11.0512V12.3712H18.0167C17.5033 12.3712 17.0358 12.5728 16.6967 12.9211Z" stroke="white" stroke-width="1.5" stroke-linecap="round" stroke-linejoin="round"/>
<path d="M2.45166 11.8757V7.68658C2.45166 6.59575 3.12082 5.62404 4.13832 5.23904L11.4167 2.48904C12.5533 2.05821 13.7725 2.90157 13.7725 4.12073V7.60405" stroke="white" stroke-width="1.5" stroke-linecap="round" stroke-linejoin="round"/>
<path d="M20.8389 13.3061V15.1944C20.8389 15.6986 20.4356 16.1111 19.9222 16.1294H18.1256C17.1356 16.1294 16.2281 15.4052 16.1456 14.4152C16.0906 13.8377 16.3106 13.2969 16.6956 12.9211C17.0347 12.5727 17.5022 12.3711 18.0156 12.3711H19.9222C20.4356 12.3894 20.8389 12.8019 20.8389 13.3061Z" stroke="white" stroke-width="1.5" stroke-linecap="round" stroke-linejoin="round"/>
<path d="M6.57666 11.5H12.9933" stroke="white" stroke-width="1.5" stroke-linecap="round" stroke-linejoin="round"/>
<path d="M8.40999 17.9167C8.40999 18.6042 8.21749 19.255 7.87833 19.805C7.68583 20.135 7.43833 20.4283 7.15416 20.6667C6.5125 21.2442 5.66916 21.5833 4.74333 21.5833C3.40499 21.5833 2.24083 20.8683 1.60833 19.805C1.26916 19.255 1.07666 18.6042 1.07666 17.9167C1.07666 16.7617 1.60833 15.7258 2.45166 15.0567C3.08416 14.5525 3.88166 14.25 4.74333 14.25C6.76916 14.25 8.40999 15.8908 8.40999 17.9167Z" stroke="white" stroke-width="1.5" stroke-miterlimit="10" stroke-linecap="round" stroke-linejoin="round"/>
<path d="M3.3147 17.9159L4.22219 18.8234L6.17469 17.0176" stroke="white" stroke-width="1.5" stroke-linecap="round" stroke-linejoin="round"/>
</svg>
