<svg width="27" height="34" viewBox="0 0 27 34" fill="none" xmlns="http://www.w3.org/2000/svg">
<g filter="url(#filter0_d_761_2670)">
<path d="M13.1733 14.7762C13.0649 14.7653 12.9349 14.7653 12.8158 14.7762C10.2374 14.6895 8.18994 12.577 8.18994 9.97699C8.18994 7.32283 10.3349 5.16699 12.9999 5.16699C15.6541 5.16699 17.8099 7.32283 17.8099 9.97699C17.7991 12.577 15.7516 14.6895 13.1733 14.7762Z" stroke="white" stroke-width="1.56" stroke-linecap="round" stroke-linejoin="round"/>
<path d="M7.75678 18.773C5.13511 20.528 5.13511 23.388 7.75678 25.1322C10.7359 27.1255 15.6218 27.1255 18.6009 25.1322C21.2226 23.3772 21.2226 20.5172 18.6009 18.773C15.6326 16.7905 10.7468 16.7905 7.75678 18.773Z" stroke="white" stroke-width="1.56" stroke-linecap="round" stroke-linejoin="round"/>
</g>
<defs>
<filter id="filter0_d_761_2670" x="-5" y="-0.6" width="36" height="36" filterUnits="userSpaceOnUse" color-interpolation-filters="sRGB">
<feFlood flood-opacity="0" result="BackgroundImageFix"/>
<feColorMatrix in="SourceAlpha" type="matrix" values="0 0 0 0 0 0 0 0 0 0 0 0 0 0 0 0 0 0 127 0" result="hardAlpha"/>
<feOffset dy="1.4"/>
<feGaussianBlur stdDeviation="2.5"/>
<feComposite in2="hardAlpha" operator="out"/>
<feColorMatrix type="matrix" values="0 0 0 0 0 0 0 0 0 0 0 0 0 0 0 0 0 0 0.25 0"/>
<feBlend mode="normal" in2="BackgroundImageFix" result="effect1_dropShadow_761_2670"/>
<feBlend mode="normal" in="SourceGraphic" in2="effect1_dropShadow_761_2670" result="shape"/>
</filter>
</defs>
</svg>
