<svg width="24" height="24" viewBox="0 0 24 24" fill="none" xmlns="http://www.w3.org/2000/svg">
<g clip-path="url(#clip0_469_6379)">
<path d="M9.01011 4.90844C8.24344 1.59261 3.25052 1.58302 2.48386 4.90844C2.03344 6.85386 3.26969 8.50219 4.34302 9.52761C5.12886 10.2655 6.36511 10.2655 7.15094 9.52761C8.22427 8.50219 9.45094 6.85386 9.01011 4.90844ZM5.78052 6.44177C5.25344 6.44177 4.82219 6.01052 4.82219 5.48344C4.82219 4.95636 5.24386 4.52511 5.77094 4.52511H5.78052C6.31719 4.52511 6.73886 4.95636 6.73886 5.48344C6.73886 6.01052 6.31719 6.44177 5.78052 6.44177Z" fill="#0C0507"/>
<path d="M21.4971 16.4084C20.7304 13.0926 15.7183 13.083 14.9421 16.4084C14.4917 18.3539 15.7279 20.0022 16.8108 21.0276C17.5967 21.7655 18.8425 21.7655 19.6283 21.0276C20.7112 20.0022 21.9475 18.3539 21.4971 16.4084ZM18.2579 17.9418C17.7308 17.9418 17.2996 17.5105 17.2996 16.9834C17.2996 16.4564 17.7212 16.0251 18.2483 16.0251H18.2579C18.785 16.0251 19.2162 16.4564 19.2162 16.9834C19.2162 17.5105 18.785 17.9418 18.2579 17.9418Z" fill="#0C0507"/>
<path d="M12 19.4274H9.43163C8.31996 19.4274 7.35205 18.7566 6.96871 17.7216C6.5758 16.6866 6.8633 15.5462 7.69705 14.8082L15.3541 8.10949C15.8141 7.70699 15.8237 7.16074 15.6895 6.78699C15.5458 6.41324 15.1816 6.01074 14.5683 6.01074H12C11.607 6.01074 11.2812 5.68491 11.2812 5.29199C11.2812 4.89908 11.607 4.57324 12 4.57324H14.5683C15.68 4.57324 16.6479 5.24408 17.0312 6.27908C17.4241 7.31408 17.1366 8.45449 16.3029 9.19241L8.6458 15.8912C8.1858 16.2937 8.17621 16.8399 8.31038 17.2137C8.45413 17.5874 8.8183 17.9899 9.43163 17.9899H12C12.3929 17.9899 12.7187 18.3157 12.7187 18.7087C12.7187 19.1016 12.3929 19.4274 12 19.4274Z" fill="#0C0507"/>
</g>
<defs>
<clipPath id="clip0_469_6379">
<rect width="23" height="23" fill="white" transform="translate(0.5 0.5)"/>
</clipPath>
</defs>
</svg>
