<svg width="44" height="44" viewBox="0 0 44 44" fill="none" xmlns="http://www.w3.org/2000/svg">
<path d="M30.003 34.4164L30.0025 34.416L23.5002 30.8052C23.4994 30.8047 23.4986 30.8043 23.4978 30.8038C23.064 30.5578 22.524 30.4498 22.0114 30.4498C21.4975 30.4498 20.9553 30.5584 20.5165 30.803C20.5164 30.803 20.5163 30.8031 20.5162 30.8032L14.0119 34.4152C14.0116 34.4153 14.0113 34.4155 14.0111 34.4156C13.0543 34.9422 12.2947 34.92 11.8035 34.6307C11.3125 34.3415 10.9264 33.6894 10.9264 32.5998V13.8132C10.9264 11.2618 13.01 9.1665 15.5731 9.1665H28.4264C30.9886 9.1665 33.0737 11.2612 33.0864 13.8143V32.5998C33.0864 33.6974 32.6994 34.352 32.2093 34.6407C31.7195 34.9291 30.9606 34.9497 30.003 34.4164ZM23.4997 23.6132V21.6998H25.3331C26.1559 21.6998 26.8331 21.0226 26.8331 20.1998C26.8331 19.377 26.1559 18.6998 25.3331 18.6998H23.4997V16.9465C23.4997 16.1237 22.8225 15.4465 21.9997 15.4465C21.1769 15.4465 20.4997 16.1237 20.4997 16.9465V18.6998H18.6664C17.8436 18.6998 17.1664 19.377 17.1664 20.1998C17.1664 21.0226 17.8436 21.6998 18.6664 21.6998H20.4997V23.6132C20.4997 24.436 21.1769 25.1132 21.9997 25.1132C22.8225 25.1132 23.4997 24.436 23.4997 23.6132Z" fill="white" stroke="white"/>
</svg>
