<svg width="23" height="23" viewBox="0 0 23 23" fill="none" xmlns="http://www.w3.org/2000/svg">
<path d="M11.1599 14.25C12.6787 14.25 13.9099 13.0188 13.9099 11.5C13.9099 9.98122 12.6787 8.75 11.1599 8.75C9.64113 8.75 8.40991 9.98122 8.40991 11.5C8.40991 13.0188 9.64113 14.25 11.1599 14.25Z" stroke="white" stroke-width="1.5" stroke-miterlimit="10" stroke-linecap="round" stroke-linejoin="round"/>
<path d="M1.99316 12.3066V10.6933C1.99316 9.73998 2.77233 8.95165 3.73483 8.95165C5.394 8.95165 6.07233 7.77832 5.23816 6.33915C4.7615 5.51415 5.04566 4.44165 5.87983 3.96498L7.46566 3.05748C8.18983 2.62665 9.12483 2.88332 9.55566 3.60748L9.6565 3.78165C10.4815 5.22082 11.8382 5.22082 12.6723 3.78165L12.7732 3.60748C13.204 2.88332 14.139 2.62665 14.8632 3.05748L16.449 3.96498C17.2832 4.44165 17.5673 5.51415 17.0907 6.33915C16.2565 7.77832 16.9348 8.95165 18.594 8.95165C19.5473 8.95165 20.3357 9.73082 20.3357 10.6933V12.3066C20.3357 13.26 19.5565 14.0483 18.594 14.0483C16.9348 14.0483 16.2565 15.2216 17.0907 16.6608C17.5673 17.495 17.2832 18.5583 16.449 19.035L14.8632 19.9425C14.139 20.3733 13.204 20.1166 12.7732 19.3925L12.6723 19.2183C11.8473 17.7791 10.4907 17.7791 9.6565 19.2183L9.55566 19.3925C9.12483 20.1166 8.18983 20.3733 7.46566 19.9425L5.87983 19.035C5.04566 18.5583 4.7615 17.4858 5.23816 16.6608C6.07233 15.2216 5.394 14.0483 3.73483 14.0483C2.77233 14.0483 1.99316 13.26 1.99316 12.3066Z" stroke="white" stroke-width="1.5" stroke-miterlimit="10" stroke-linecap="round" stroke-linejoin="round"/>
</svg>
