<svg width="44" height="44" viewBox="0 0 44 44" fill="none" xmlns="http://www.w3.org/2000/svg">
<path d="M27.5202 9.94672L15.4802 13.9467C7.38682 16.6534 7.38682 21.0667 15.4802 23.7601L19.0535 24.9467L20.2402 28.5201C22.9335 36.6134 27.3602 36.6134 30.0535 28.5201L34.0668 16.4934C35.8535 11.0934 32.9202 8.14672 27.5202 9.94672ZM27.9468 17.1201L22.8802 22.2134C22.6802 22.4134 22.4268 22.5067 22.1735 22.5067C21.9202 22.5067 21.6668 22.4134 21.4668 22.2134C21.0802 21.8267 21.0802 21.1867 21.4668 20.8001L26.5335 15.7067C26.9202 15.3201 27.5602 15.3201 27.9468 15.7067C28.3335 16.0934 28.3335 16.7334 27.9468 17.1201Z" fill="white" fill-opacity="0.9"/>
<path d="M27.6783 10.4211L27.6778 10.4212L15.6387 14.4209C15.6385 14.421 15.6383 14.421 15.6381 14.4211C13.6471 15.087 12.1929 15.8458 11.2463 16.6285C10.2978 17.4127 9.91016 18.1744 9.91016 18.8584C9.91016 19.5423 10.2977 20.303 11.2459 21.0854C12.1924 21.8665 13.6466 22.6229 15.6377 23.2855L27.6783 10.4211ZM27.6783 10.4211C30.3013 9.54674 32.146 9.88329 33.1347 10.8734C34.1239 11.8639 34.46 13.7126 33.5924 16.3355C33.5923 16.3358 33.5922 16.3361 33.5921 16.3363L29.5792 28.3618L29.5791 28.3622M27.6783 10.4211L29.5791 28.3622M29.5791 28.3622C28.9164 30.3533 28.1592 31.8076 27.3772 32.7541M29.5791 28.3622L27.3772 32.7541M27.3772 32.7541C26.5938 33.7022 25.8318 34.0901 25.1468 34.0901M27.3772 32.7541L25.1468 34.0901M25.1468 34.0901C24.4618 34.0901 23.6998 33.7022 22.9164 32.7541M25.1468 34.0901L22.9164 32.7541M22.9164 32.7541C22.1345 31.8076 21.3773 30.3535 20.7147 28.3625L22.9164 32.7541ZM19.2111 24.4722L15.638 23.2856L20.7146 28.3622L19.528 24.7891L19.449 24.5512L19.2111 24.4722ZM23.2337 22.5669L23.2346 22.566L28.3004 17.4736C28.3007 17.4733 28.301 17.473 28.3013 17.4727C28.3013 17.4727 28.3013 17.4727 28.3013 17.4727C28.8823 16.8907 28.882 15.9348 28.3004 15.3532C27.7184 14.7712 26.7619 14.7712 26.1799 15.3532L26.179 15.3541L21.1133 20.4465C21.1132 20.4466 21.1131 20.4466 21.1131 20.4467C20.5313 21.0287 20.5314 21.9851 21.1133 22.5669C21.412 22.8657 21.7947 23.0067 22.1735 23.0067C22.5523 23.0067 22.935 22.8657 23.2337 22.5669Z" stroke="white" stroke-opacity="0.9"/>
</svg>
