<svg width="20" height="21" viewBox="0 0 20 21" fill="none" xmlns="http://www.w3.org/2000/svg">
<path d="M10.0001 0.719727C4.49012 0.719727 0.00012207 5.20973 0.00012207 10.7197C0.00012207 16.2297 4.49012 20.7197 10.0001 20.7197C15.5101 20.7197 20.0001 16.2297 20.0001 10.7197C20.0001 5.20973 15.5101 0.719727 10.0001 0.719727ZM14.7801 8.41973L9.11012 14.0897C8.97012 14.2297 8.78012 14.3097 8.58012 14.3097C8.38012 14.3097 8.19012 14.2297 8.05012 14.0897L5.22012 11.2597C4.93012 10.9697 4.93012 10.4897 5.22012 10.1997C5.51012 9.90973 5.99012 9.90973 6.28012 10.1997L8.58012 12.4997L13.7201 7.35973C14.0101 7.06973 14.4901 7.06973 14.7801 7.35973C15.0701 7.64973 15.0701 8.11973 14.7801 8.41973Z" fill="white"/>
</svg>
